<svg width="32" height="33" viewBox="0 0 32 33" fill="none" xmlns="http://www.w3.org/2000/svg">
<rect y="0.0167847" width="32" height="32.0002" rx="4" fill="white"/>
<path d="M5.00654 19.2618C5.00654 17.4338 5.02212 15.6059 5.0003 13.7779C4.98473 12.4466 5.56738 12.2372 6.47252 11.8796C7.37142 11.525 8.31395 11.3003 9.26271 11.1582C10.5433 10.9656 11.8441 10.8632 13.1356 11.0007C14.2713 11.1215 15.3884 11.389 16.3215 12.0844C17.384 12.8761 17.9682 13.9598 18.1957 15.2406C18.3156 15.9192 18.3453 16.6009 18.3437 17.2871C18.3375 19.8762 18.3406 22.4669 18.3406 25.056C18.3406 25.458 18.2954 25.834 17.8561 26.0403C17.7159 26.106 17.5834 26.1106 17.4448 26.1122C16.5879 26.1167 15.7311 26.1076 14.8758 26.1167C14.4209 26.1213 14.0065 25.8477 13.9987 25.3709C13.9956 25.1691 13.966 24.9658 13.966 24.7641C13.9629 22.2514 13.9644 19.7372 13.9629 17.2244C13.9629 16.8316 13.9582 16.4358 13.8289 16.0583C13.5563 15.2681 12.8957 14.9792 12.1324 14.889C11.33 14.7943 10.5277 14.8661 9.73631 15.0373C9.45433 15.0984 9.42006 15.265 9.42006 15.5096C9.42629 18.6061 9.42473 21.7042 9.42473 24.8023C9.42473 24.9551 9.42941 25.108 9.4185 25.2593C9.37955 25.8202 9.08199 26.1091 8.51492 26.1152C7.68456 26.1244 6.85264 26.1015 6.02384 26.1244C5.40224 26.1427 5.01121 25.7484 5.01121 25.1309C5.00654 23.1715 5.00654 21.2167 5.00654 19.2618Z" fill="black"/>
<path d="M26.1536 16.5333C26.1536 19.3493 26.1551 22.1654 26.152 24.98C26.152 25.429 26.0464 25.8337 25.56 26.0368C25.4202 26.0948 25.2835 26.0887 25.1467 26.0887C24.3699 26.0948 23.593 26.0948 22.8177 26.0917C22.0517 26.0872 21.7534 25.7985 21.7518 25.0411C21.7487 20.9574 21.7503 16.8723 21.7472 12.7887C21.7472 12.6329 21.8357 12.4084 21.6835 12.3366C21.5141 12.2572 21.3914 12.471 21.2531 12.5672C20.9548 12.7734 20.6565 12.978 20.3535 13.1766C19.906 13.4713 19.5207 13.3812 19.2736 12.917C18.8899 12.1931 18.3865 11.5608 17.7774 11.0065C17.3439 10.6109 17.3641 10.2093 17.8566 9.89012C19.2161 9.01048 20.5741 8.12931 21.9585 7.28632C22.3702 7.03587 22.8472 6.88315 23.3662 6.90911C23.896 6.93507 24.4274 6.92591 24.9572 6.91217C25.8335 6.89079 26.1473 7.30617 26.1505 8.08502C26.1613 10.9011 26.1536 13.7172 26.1536 16.5333Z" fill="black"/>
</svg>
