<svg width="190" height="32" viewBox="0 0 190 32" fill="none" xmlns="http://www.w3.org/2000/svg">
<g clip-path="url(#clip0_628_7888)">
<path d="M11.2524 6.55291C18.0775 6.55291 21.2132 10.0616 21.2132 16.1107V29.5465C21.2132 30.8395 20.7979 31.2553 19.5529 31.2553H15.9554C14.6639 31.2553 14.2486 30.8395 14.2486 29.5465V16.3414C14.2486 13.9406 12.9571 12.8782 10.3287 12.8782C9.08371 12.8782 8.06913 13.0169 7.10104 13.2941C7.05455 13.2941 6.9626 13.3861 6.9626 13.4792V29.5465C6.9626 30.8395 6.54726 31.2553 5.25578 31.2553H1.70578C0.414305 31.2553 0 30.8395 0 29.5465V10.8922C0 9.36854 0.322352 8.8141 1.84423 8.21415C3.73494 7.42904 6.68674 6.55187 11.2524 6.55187" fill="#141414"/>
<path d="M48.4075 6.55291C53.9413 6.55291 57.3074 9.23096 58.5069 12.6941C58.9677 14.0326 58.5988 14.6336 57.3074 15.095L54.3566 16.0642C53.0197 16.5721 52.4194 16.2493 51.9121 14.9098C51.3128 13.4327 50.0679 12.5545 48.1307 12.5545C45.6407 12.5545 44.3957 13.7554 44.3957 16.0176V22.4816C44.3957 24.7438 45.6407 25.9447 48.1307 25.9447C50.0679 25.9447 51.3128 25.0676 51.9121 23.5905C52.4194 22.2975 52.9732 22.0668 54.3566 22.4826L57.3538 23.4063C58.6453 23.8222 59.1061 24.4676 58.5523 25.8527C56.9385 29.6851 53.6179 31.9474 47.9457 31.9474C40.6122 31.9474 37.4311 28.2535 37.4311 22.1589V16.3414C37.4311 10.2933 40.8436 6.55291 48.4065 6.55291" fill="#141414"/>
<path d="M72.3432 6.55291C79.6302 6.55291 83.3652 10.2467 83.3652 16.2949V22.2509C83.3652 28.299 79.6292 31.9474 72.3432 31.9474C65.0572 31.9474 61.3677 28.3001 61.3677 22.2509V16.2949C61.3677 10.2467 65.1492 6.55291 72.3432 6.55291ZM72.3432 12.7396C69.6683 12.7396 68.3314 13.9406 68.3314 16.2028V22.2975C68.3314 24.5142 69.6683 25.7606 72.3432 25.7606C75.0181 25.7606 76.4015 24.5142 76.4015 22.2975V16.2028C76.4015 13.9406 75.0636 12.7396 72.3432 12.7396Z" fill="#141414"/>
<path d="M31.8829 0H29.2245C28.1531 0 27.682 0.128265 26.7387 0.68684L20.3371 4.84098C19.7172 5.20095 19.6242 6.07501 20.1728 6.53739C21.237 7.43421 22.0914 8.53895 22.7206 9.83815C22.9872 10.3885 23.6546 10.6067 24.1857 10.3057L26.654 8.58239V29.4927C26.654 30.823 27.1261 31.2522 28.4114 31.2522H31.8829C33.1682 31.2522 33.6403 30.823 33.6403 29.4927V1.75951C33.6403 0.429275 33.1682 0 31.8829 0Z" fill="#141414"/>
</g>
<path d="M178.735 31.6146C176.734 31.6146 175.096 31.2807 173.82 30.6128C172.544 29.945 171.616 28.9722 171.036 27.6946C170.572 26.6783 170.34 25.4587 170.34 24.0359H172.471C172.471 25.0813 172.645 25.9959 172.993 26.7799C173.863 28.7254 175.777 29.6982 178.735 29.6982C180.243 29.6982 181.476 29.4949 182.433 29.0884C183.39 28.6528 184.042 28.0285 184.39 27.2155C184.622 26.6928 184.738 26.1411 184.738 25.5604C184.738 24.9796 184.651 24.5005 184.477 24.123C184.216 23.5713 183.796 23.1213 183.216 22.7728C182.636 22.4244 181.983 22.1485 181.258 21.9453C180.562 21.742 179.562 21.5097 178.257 21.2484C176.459 20.8419 174.994 20.3627 173.863 19.811C172.761 19.2303 171.978 18.4463 171.514 17.459C171.253 16.8493 171.123 16.1524 171.123 15.3684C171.123 14.5553 171.282 13.7859 171.601 13.0599C172.065 11.9856 172.877 11.158 174.037 10.5773C175.226 9.96749 176.691 9.6626 178.431 9.6626C180.229 9.6626 181.722 9.98201 182.911 10.6208C184.1 11.2306 184.956 12.1162 185.478 13.2777C185.884 14.1198 186.087 15.1796 186.087 16.4573H183.955C183.955 15.499 183.81 14.715 183.52 14.1053C183.143 13.2632 182.505 12.6244 181.606 12.1888C180.736 11.7533 179.663 11.5355 178.387 11.5355C177.111 11.5355 176.082 11.7242 175.299 12.1017C174.516 12.4792 173.965 13.0164 173.646 13.7133C173.443 14.1488 173.341 14.657 173.341 15.2377C173.341 15.7023 173.414 16.1233 173.559 16.5008C173.791 17.0525 174.197 17.5026 174.777 17.851C175.386 18.1995 176.038 18.4753 176.734 18.6786C177.43 18.8528 178.416 19.0851 179.692 19.3755C181.548 19.782 183.042 20.2756 184.173 20.8564C185.304 21.4081 186.101 22.1921 186.565 23.2084C186.855 23.8762 187 24.6312 187 25.4733C187 26.3734 186.826 27.201 186.478 27.9559C185.956 29.1465 185.028 30.0611 183.694 30.6999C182.36 31.3097 180.707 31.6146 178.735 31.6146Z" fill="#141414"/>
<path d="M163.914 0.385254H166.046V31.1355H163.914V0.385254Z" fill="#141414"/>
<path d="M157.627 13.6697C158.178 14.9764 158.453 16.617 158.453 18.5915V31.1355H156.322V27.3897C155.597 28.7545 154.538 29.7998 153.146 30.5257C151.754 31.2516 150.043 31.6146 148.013 31.6146C146.244 31.6146 144.736 31.3242 143.489 30.7435C142.271 30.1627 141.401 29.2916 140.879 28.1302C140.531 27.3462 140.357 26.446 140.357 25.4297C140.357 24.5586 140.531 23.702 140.879 22.8599C141.488 21.4952 142.619 20.537 144.272 19.9853C145.954 19.4045 148.071 19.1142 150.623 19.1142H156.322V18.3737C156.322 16.8347 156.104 15.5571 155.669 14.5408C155.234 13.5536 154.524 12.8276 153.538 12.363C152.581 11.8694 151.319 11.6226 149.753 11.6226C148.245 11.6226 146.984 11.8549 145.969 12.3195C144.954 12.7841 144.229 13.481 143.794 14.4102C143.504 15.0199 143.359 15.7604 143.359 16.6315H141.184C141.184 15.5281 141.387 14.4973 141.793 13.539C142.373 12.2614 143.344 11.3032 144.707 10.6644C146.07 9.99652 147.752 9.6626 149.753 9.6626C151.812 9.6626 153.48 9.99652 154.756 10.6644C156.061 11.3322 157.018 12.334 157.627 13.6697ZM148.405 29.6982C151.943 29.6982 154.292 28.435 155.452 25.9088C156.032 24.5731 156.322 22.9906 156.322 21.1613V20.9435H150.754C148.695 20.9435 146.998 21.1467 145.664 21.5533C144.33 21.9598 143.431 22.6712 142.967 23.6875C142.735 24.1521 142.619 24.6893 142.619 25.299C142.619 25.9959 142.75 26.6057 143.011 27.1284C143.388 27.9705 144.04 28.6093 144.968 29.0448C145.925 29.4804 147.071 29.6982 148.405 29.6982Z" fill="#141414"/>
<path d="M132.654 27.8253C133.234 27.3316 133.683 26.7364 134.002 26.0395C134.35 25.3136 134.568 24.5296 134.655 23.6875H136.83C136.656 25.9814 135.815 27.8107 134.307 29.1755C133.408 29.9595 132.349 30.5693 131.131 31.0048C129.913 31.4113 128.565 31.6146 127.086 31.6146C124.853 31.6146 122.924 31.1355 121.3 30.1773C119.705 29.219 118.531 27.8979 117.777 26.2137C117.052 24.5876 116.689 22.7293 116.689 20.6386C116.689 18.5479 117.052 16.6896 117.777 15.0635C118.56 13.3503 119.734 12.0291 121.3 11.0999C122.866 10.1417 124.737 9.6626 126.912 9.6626C129.087 9.6626 130.943 10.1272 132.48 11.0564C134.017 11.9565 135.148 13.2342 135.873 14.8893C136.25 15.7313 136.525 16.646 136.699 17.6333C136.873 18.6205 136.96 19.7239 136.96 20.9435H118.908C118.966 22.7728 119.256 24.2827 119.778 25.4733C120.387 26.809 121.3 27.8398 122.518 28.5657C123.765 29.2916 125.288 29.6546 127.086 29.6546C128.246 29.6546 129.304 29.5094 130.261 29.219C131.218 28.8996 132.016 28.435 132.654 27.8253ZM119.778 15.8039C119.372 16.7331 119.096 17.8365 118.951 19.1142H134.698C134.611 17.7494 134.35 16.5734 133.915 15.5862C133.335 14.3085 132.451 13.3358 131.262 12.6679C130.102 11.971 128.666 11.6226 126.955 11.6226C125.186 11.6226 123.693 11.9856 122.475 12.7115C121.286 13.4084 120.387 14.4392 119.778 15.8039Z" fill="#141414"/>
<path d="M88.7734 0.385254H98.4738C101.693 0.385254 104.375 0.995032 106.521 2.21459C108.696 3.43414 110.306 5.19088 111.35 7.48481C112.336 9.72066 112.829 12.4792 112.829 15.7604C112.829 19.0416 112.336 21.8001 111.35 24.0359C110.306 26.3298 108.696 28.0866 106.521 29.3061C104.375 30.5257 101.693 31.1355 98.4738 31.1355H88.7734V0.385254ZM98.2998 29.0448C101.084 29.0448 103.36 28.5657 105.129 27.6075C106.927 26.6202 108.261 25.1538 109.131 23.2084C109.566 22.2501 109.885 21.1758 110.088 19.9853C110.291 18.7657 110.393 17.3574 110.393 15.7604C110.393 14.1633 110.291 12.7696 110.088 11.579C109.885 10.3595 109.566 9.27059 109.131 8.31236C108.261 6.36688 106.927 4.91503 105.129 3.95681C103.36 2.96955 101.084 2.47592 98.2998 2.47592H91.0789V29.0448H98.2998Z" fill="#141414"/>
<defs>
<clipPath id="clip0_628_7888">
<rect width="83.4475" height="32" fill="white"/>
</clipPath>
</defs>
</svg>
